<svg xmlns="http://www.w3.org/2000/svg" xmlns:xlink="http://www.w3.org/1999/xlink" width="800" zoomAndPan="magnify" viewBox="0 0 375 374.999991" height="800" preserveAspectRatio="xMidYMid meet" version="1.0"><defs><g/></defs><g fill="#ffffff" fill-opacity="1"><g transform="translate(41.208109, 206.628311)"><g><path d="M 13.859375 -33.59375 L 13.859375 -25.15625 L 27.46875 -25.15625 L 27.46875 -17.3125 L 13.859375 -17.3125 L 13.859375 -8.140625 L 29.265625 -8.140625 L 29.265625 0 L 3.6875 0 L 3.6875 -41.75 L 29.265625 -41.75 L 29.265625 -33.59375 Z M 13.859375 -33.59375 "/></g></g></g><g fill="#ffffff" fill-opacity="1"><g transform="translate(73.372775, 206.628311)"><g><path d="M 1.671875 -16.59375 C 1.671875 -20.039062 2.375 -23.050781 3.78125 -25.625 C 5.1875 -28.207031 7.144531 -30.191406 9.65625 -31.578125 C 12.175781 -32.960938 15.0625 -33.65625 18.3125 -33.65625 C 22.476562 -33.65625 25.957031 -32.566406 28.75 -30.390625 C 31.550781 -28.210938 33.382812 -25.140625 34.25 -21.171875 L 23.4375 -21.171875 C 22.519531 -23.710938 20.753906 -24.984375 18.140625 -24.984375 C 16.273438 -24.984375 14.785156 -24.257812 13.671875 -22.8125 C 12.566406 -21.363281 12.015625 -19.289062 12.015625 -16.59375 C 12.015625 -13.894531 12.566406 -11.820312 13.671875 -10.375 C 14.785156 -8.925781 16.273438 -8.203125 18.140625 -8.203125 C 20.753906 -8.203125 22.519531 -9.472656 23.4375 -12.015625 L 34.25 -12.015625 C 33.382812 -8.128906 31.539062 -5.078125 28.71875 -2.859375 C 25.90625 -0.640625 22.4375 0.46875 18.3125 0.46875 C 15.0625 0.46875 12.175781 -0.222656 9.65625 -1.609375 C 7.144531 -2.992188 5.1875 -4.972656 3.78125 -7.546875 C 2.375 -10.128906 1.671875 -13.144531 1.671875 -16.59375 Z M 1.671875 -16.59375 "/></g></g></g><g fill="#ffffff" fill-opacity="1"><g transform="translate(109.342501, 206.628311)"><g><path d="M 18.796875 0.46875 C 15.546875 0.46875 12.617188 -0.222656 10.015625 -1.609375 C 7.421875 -2.992188 5.378906 -4.972656 3.890625 -7.546875 C 2.410156 -10.128906 1.671875 -13.144531 1.671875 -16.59375 C 1.671875 -20 2.421875 -23 3.921875 -25.59375 C 5.429688 -28.195312 7.492188 -30.191406 10.109375 -31.578125 C 12.722656 -32.960938 15.65625 -33.65625 18.90625 -33.65625 C 22.15625 -33.65625 25.085938 -32.960938 27.703125 -31.578125 C 30.328125 -30.191406 32.390625 -28.195312 33.890625 -25.59375 C 35.398438 -23 36.15625 -20 36.15625 -16.59375 C 36.15625 -13.1875 35.390625 -10.179688 33.859375 -7.578125 C 32.335938 -4.984375 30.257812 -2.992188 27.625 -1.609375 C 24.988281 -0.222656 22.046875 0.46875 18.796875 0.46875 Z M 18.796875 -8.328125 C 20.734375 -8.328125 22.382812 -9.039062 23.75 -10.46875 C 25.125 -11.894531 25.8125 -13.9375 25.8125 -16.59375 C 25.8125 -19.25 25.144531 -21.289062 23.8125 -22.71875 C 22.488281 -24.144531 20.851562 -24.859375 18.90625 -24.859375 C 16.925781 -24.859375 15.28125 -24.15625 13.96875 -22.75 C 12.664062 -21.34375 12.015625 -19.289062 12.015625 -16.59375 C 12.015625 -13.9375 12.65625 -11.894531 13.9375 -10.46875 C 15.226562 -9.039062 16.847656 -8.328125 18.796875 -8.328125 Z M 18.796875 -8.328125 "/></g></g></g><g fill="#ffffff" fill-opacity="1"><g transform="translate(147.214759, 206.628311)"><g/></g></g><g fill="#ffffff" fill-opacity="1"><g transform="translate(159.81902, 206.628311)"><g><path d="M 1.96875 -20.9375 C 1.96875 -25.0625 2.859375 -28.738281 4.640625 -31.96875 C 6.421875 -35.195312 8.90625 -37.710938 12.09375 -39.515625 C 15.289062 -41.316406 18.910156 -42.21875 22.953125 -42.21875 C 27.910156 -42.21875 32.148438 -40.910156 35.671875 -38.296875 C 39.203125 -35.679688 41.566406 -32.113281 42.765625 -27.59375 L 31.578125 -27.59375 C 30.742188 -29.332031 29.5625 -30.660156 28.03125 -31.578125 C 26.507812 -32.492188 24.78125 -32.953125 22.84375 -32.953125 C 19.707031 -32.953125 17.164062 -31.859375 15.21875 -29.671875 C 13.28125 -27.492188 12.3125 -24.582031 12.3125 -20.9375 C 12.3125 -17.289062 13.28125 -14.375 15.21875 -12.1875 C 17.164062 -10.007812 19.707031 -8.921875 22.84375 -8.921875 C 24.78125 -8.921875 26.507812 -9.375 28.03125 -10.28125 C 29.5625 -11.195312 30.742188 -12.523438 31.578125 -14.265625 L 42.765625 -14.265625 C 41.566406 -9.753906 39.203125 -6.195312 35.671875 -3.59375 C 32.148438 -1 27.910156 0.296875 22.953125 0.296875 C 18.910156 0.296875 15.289062 -0.601562 12.09375 -2.40625 C 8.90625 -4.207031 6.421875 -6.710938 4.640625 -9.921875 C 2.859375 -13.140625 1.96875 -16.8125 1.96875 -20.9375 Z M 1.96875 -20.9375 "/></g></g></g><g fill="#ffffff" fill-opacity="1"><g transform="translate(205.123043, 206.628311)"><g><path d="M 18.796875 0.46875 C 15.546875 0.46875 12.617188 -0.222656 10.015625 -1.609375 C 7.421875 -2.992188 5.378906 -4.972656 3.890625 -7.546875 C 2.410156 -10.128906 1.671875 -13.144531 1.671875 -16.59375 C 1.671875 -20 2.421875 -23 3.921875 -25.59375 C 5.429688 -28.195312 7.492188 -30.191406 10.109375 -31.578125 C 12.722656 -32.960938 15.65625 -33.65625 18.90625 -33.65625 C 22.15625 -33.65625 25.085938 -32.960938 27.703125 -31.578125 C 30.328125 -30.191406 32.390625 -28.195312 33.890625 -25.59375 C 35.398438 -23 36.15625 -20 36.15625 -16.59375 C 36.15625 -13.1875 35.390625 -10.179688 33.859375 -7.578125 C 32.335938 -4.984375 30.257812 -2.992188 27.625 -1.609375 C 24.988281 -0.222656 22.046875 0.46875 18.796875 0.46875 Z M 18.796875 -8.328125 C 20.734375 -8.328125 22.382812 -9.039062 23.75 -10.46875 C 25.125 -11.894531 25.8125 -13.9375 25.8125 -16.59375 C 25.8125 -19.25 25.144531 -21.289062 23.8125 -22.71875 C 22.488281 -24.144531 20.851562 -24.859375 18.90625 -24.859375 C 16.925781 -24.859375 15.28125 -24.15625 13.96875 -22.75 C 12.664062 -21.34375 12.015625 -19.289062 12.015625 -16.59375 C 12.015625 -13.9375 12.65625 -11.894531 13.9375 -10.46875 C 15.226562 -9.039062 16.847656 -8.328125 18.796875 -8.328125 Z M 18.796875 -8.328125 "/></g></g></g><g fill="#ffffff" fill-opacity="1"><g transform="translate(242.995301, 206.628311)"><g><path d="M 8.796875 -36.625 C 7.015625 -36.625 5.554688 -37.148438 4.421875 -38.203125 C 3.296875 -39.253906 2.734375 -40.554688 2.734375 -42.109375 C 2.734375 -43.691406 3.296875 -45.007812 4.421875 -46.0625 C 5.554688 -47.113281 7.015625 -47.640625 8.796875 -47.640625 C 10.546875 -47.640625 11.984375 -47.113281 13.109375 -46.0625 C 14.242188 -45.007812 14.8125 -43.691406 14.8125 -42.109375 C 14.8125 -40.554688 14.242188 -39.253906 13.109375 -38.203125 C 11.984375 -37.148438 10.546875 -36.625 8.796875 -36.625 Z M 13.859375 -33.1875 L 13.859375 0 L 3.6875 0 L 3.6875 -33.1875 Z M 13.859375 -33.1875 "/></g></g></g><g fill="#ffffff" fill-opacity="1"><g transform="translate(260.534247, 206.628311)"><g><path d="M 23.90625 -33.546875 C 27.789062 -33.546875 30.890625 -32.285156 33.203125 -29.765625 C 35.523438 -27.242188 36.6875 -23.785156 36.6875 -19.390625 L 36.6875 0 L 26.578125 0 L 26.578125 -18.015625 C 26.578125 -20.234375 26.003906 -21.957031 24.859375 -23.1875 C 23.710938 -24.414062 22.164062 -25.03125 20.21875 -25.03125 C 18.28125 -25.03125 16.734375 -24.414062 15.578125 -23.1875 C 14.429688 -21.957031 13.859375 -20.234375 13.859375 -18.015625 L 13.859375 0 L 3.6875 0 L 3.6875 -33.1875 L 13.859375 -33.1875 L 13.859375 -28.78125 C 14.890625 -30.25 16.273438 -31.410156 18.015625 -32.265625 C 19.765625 -33.117188 21.726562 -33.546875 23.90625 -33.546875 Z M 23.90625 -33.546875 "/></g></g></g><g fill="#ffffff" fill-opacity="1"><g transform="translate(300.606298, 206.628311)"><g><path d="M 17.1875 0.46875 C 14.289062 0.46875 11.710938 -0.0234375 9.453125 -1.015625 C 7.191406 -2.003906 5.40625 -3.359375 4.09375 -5.078125 C 2.789062 -6.804688 2.0625 -8.738281 1.90625 -10.875 L 11.953125 -10.875 C 12.066406 -9.726562 12.597656 -8.796875 13.546875 -8.078125 C 14.503906 -7.367188 15.675781 -7.015625 17.0625 -7.015625 C 18.332031 -7.015625 19.3125 -7.257812 20 -7.75 C 20.695312 -8.25 21.046875 -8.894531 21.046875 -9.6875 C 21.046875 -10.644531 20.550781 -11.347656 19.5625 -11.796875 C 18.570312 -12.253906 16.96875 -12.765625 14.75 -13.328125 C 12.375 -13.878906 10.390625 -14.460938 8.796875 -15.078125 C 7.210938 -15.691406 5.84375 -16.660156 4.6875 -17.984375 C 3.539062 -19.316406 2.96875 -21.113281 2.96875 -23.375 C 2.96875 -25.269531 3.492188 -27 4.546875 -28.5625 C 5.597656 -30.132812 7.144531 -31.375 9.1875 -32.28125 C 11.226562 -33.195312 13.65625 -33.65625 16.46875 -33.65625 C 20.632812 -33.65625 23.914062 -32.625 26.3125 -30.5625 C 28.707031 -28.5 30.085938 -25.765625 30.453125 -22.359375 L 21.046875 -22.359375 C 20.890625 -23.503906 20.382812 -24.414062 19.53125 -25.09375 C 18.675781 -25.769531 17.554688 -26.109375 16.171875 -26.109375 C 14.984375 -26.109375 14.070312 -25.878906 13.4375 -25.421875 C 12.800781 -24.960938 12.484375 -24.335938 12.484375 -23.546875 C 12.484375 -22.597656 12.988281 -21.882812 14 -21.40625 C 15.007812 -20.925781 16.585938 -20.453125 18.734375 -19.984375 C 21.191406 -19.347656 23.191406 -18.722656 24.734375 -18.109375 C 26.285156 -17.492188 27.644531 -16.5 28.8125 -15.125 C 29.976562 -13.757812 30.582031 -11.929688 30.625 -9.640625 C 30.625 -7.691406 30.078125 -5.953125 28.984375 -4.421875 C 27.898438 -2.898438 26.335938 -1.703125 24.296875 -0.828125 C 22.253906 0.0351562 19.882812 0.46875 17.1875 0.46875 Z M 17.1875 0.46875 "/></g></g></g></svg>