<svg xmlns="http://www.w3.org/2000/svg" xmlns:xlink="http://www.w3.org/1999/xlink" width="800" zoomAndPan="magnify" viewBox="0 0 375 374.999991" height="800" preserveAspectRatio="xMidYMid meet" version="1.0"><defs><clipPath id="1843164787"><path d="M 7 55.566406 L 309 55.566406 L 309 238 L 7 238 Z M 7 55.566406 " clip-rule="nonzero"/></clipPath><clipPath id="8ca1017b5b"><path d="M 61 180 L 368 180 L 368 319.566406 L 61 319.566406 Z M 61 180 " clip-rule="nonzero"/></clipPath></defs><g clip-path="url(#1843164787)"><path fill="#ffffff" d="M 93.699219 216.078125 L 130.542969 237.34375 C 145.847656 240.324219 161.96875 229.488281 173.210938 220.007812 C 199.082031 193.457031 230.234375 171.515625 266.941406 164.605469 L 146.253906 94.847656 C 157.632812 89.972656 170.230469 87.398438 183.367188 87.398438 C 229.558594 87.398438 268.160156 120.179688 277.101562 163.660156 C 287.667969 162.167969 297.824219 161.898438 308.527344 163.253906 C 299.042969 102.707031 246.625 56.246094 183.367188 56.246094 C 158.039062 56.246094 134.472656 63.695312 114.558594 76.5625 L 81.914062 57.734375 C 73.652344 52.996094 63.085938 55.839844 58.347656 64.101562 L 9.992188 147.8125 C 5.25 156.074219 8.09375 166.636719 16.355469 171.378906 L 31.933594 180.453125 L 31.796875 180.183594 L 93.429688 216.214844 L 93.429688 216.078125 Z M 101.554688 133.453125 C 106.296875 143.613281 140.296875 137.789062 140.296875 161.761719 C 140.296875 174.496094 131.085938 181.539062 118.894531 182.757812 L 118.894531 195.625 L 107.246094 195.625 L 107.246094 182.214844 C 99.253906 180.726562 92.210938 177.339844 85.84375 171.648438 L 93.292969 162.847656 C 96.679688 165.824219 100.203125 167.992188 103.722656 169.617188 C 111.984375 173.277344 128.105469 173.683594 128.105469 162.980469 C 128.105469 146.996094 88.6875 158.242188 88.6875 131.015625 C 88.6875 119.90625 96.679688 112.59375 107.378906 110.832031 L 107.378906 97.695312 L 119.03125 97.695312 L 119.03125 110.832031 C 126.207031 111.78125 132.4375 114.761719 138.128906 119.230469 L 131.492188 128.578125 C 128.238281 126.273438 125.125 124.378906 121.875 123.160156 C 113.070312 119.636719 100.878906 120.855469 100.878906 129.796875 C 100.878906 131.148438 101.148438 132.367188 101.554688 133.453125 Z M 101.554688 133.453125 " fill-opacity="1" fill-rule="evenodd"/></g><g clip-path="url(#8ca1017b5b)"><path fill="#ffffff" d="M 279.132812 180.996094 C 246.894531 184.519531 215.742188 201.992188 185.535156 233.28125 C 159.800781 254.953125 136.910156 261.046875 116.726562 251.703125 C 112.257812 249.671875 108.058594 246.824219 103.859375 243.167969 L 61.867188 218.515625 C 64.308594 227.050781 67.691406 235.3125 71.890625 242.898438 C 94.105469 280.148438 138.804688 300.464844 182.828125 289.898438 C 225.085938 278.25 259.355469 258.203125 285.90625 229.894531 C 262.742188 272.425781 216.148438 297.078125 146.121094 304.121094 C 146.527344 304.121094 184.859375 329.722656 235.515625 314.820312 C 265.585938 306.019531 290.644531 285.292969 304.867188 257.390625 C 319.226562 233.28125 341.167969 214.589844 367.175781 204.160156 C 339.273438 186.820312 309.746094 177.472656 279.132812 180.859375 Z M 279.132812 180.996094 " fill-opacity="1" fill-rule="evenodd"/></g></svg>